<svg width="10" height="10" viewBox="0 0 10 10" fill="none" xmlns="http://www.w3.org/2000/svg">
<path d="M9.2 0.806678C8.94 0.546678 8.52 0.546678 8.26 0.806678L5 4.06001L1.74 0.800011C1.48 0.540011 1.06 0.540011 0.799996 0.800011C0.539996 1.06001 0.539996 1.48001 0.799996 1.74001L4.06 5.00001L0.799996 8.26001C0.539996 8.52001 0.539996 8.94001 0.799996 9.20001C1.06 9.46001 1.48 9.46001 1.74 9.20001L5 5.94001L8.26 9.20001C8.52 9.46001 8.94 9.46001 9.2 9.20001C9.46 8.94001 9.46 8.52001 9.2 8.26001L5.94 5.00001L9.2 1.74001C9.45333 1.48668 9.45333 1.06001 9.2 0.806678Z" fill="#111111"/>
</svg>
