<svg width="32" height="32" viewBox="0 0 32 32" fill="none" xmlns="http://www.w3.org/2000/svg">
<g clip-path="url(#clip0_2059_9689)">
<path d="M10.9999 14.3335C10.0833 14.3335 9.33325 15.0835 9.33325 16.0002C9.33325 16.9168 10.0833 17.6668 10.9999 17.6668C11.9166 17.6668 12.6666 16.9168 12.6666 16.0002C12.6666 15.0835 11.9166 14.3335 10.9999 14.3335ZM20.9999 14.3335C20.0833 14.3335 19.3333 15.0835 19.3333 16.0002C19.3333 16.9168 20.0833 17.6668 20.9999 17.6668C21.9166 17.6668 22.6666 16.9168 22.6666 16.0002C22.6666 15.0835 21.9166 14.3335 20.9999 14.3335ZM15.9999 14.3335C15.0833 14.3335 14.3333 15.0835 14.3333 16.0002C14.3333 16.9168 15.0833 17.6668 15.9999 17.6668C16.9166 17.6668 17.6666 16.9168 17.6666 16.0002C17.6666 15.0835 16.9166 14.3335 15.9999 14.3335Z" fill="#999999"/>
</g>
<defs>
<clipPath id="clip0_2059_9689">
<rect width="20" height="20" fill="white" transform="translate(6 6)"/>
</clipPath>
</defs>
</svg>
