<svg width="222" height="69" viewBox="0 0 222 69" fill="none" xmlns="http://www.w3.org/2000/svg">
<mask id="path-1-outside-1_2964_5619" maskUnits="userSpaceOnUse" x="0" y="0" width="222" height="69" fill="black">
<rect fill="white" width="222" height="69"/>
<path d="M208 2C214.627 2 220 7.37258 220 14V46C220 52.6274 214.627 58 208 58H116.735L112.789 65.8926C112.052 67.3665 109.948 67.3665 109.211 65.8926L105.265 58H14C7.37258 58 2 52.6274 2 46V14C2 7.37258 7.37258 2 14 2H208Z"/>
</mask>
<path d="M208 2C214.627 2 220 7.37258 220 14V46C220 52.6274 214.627 58 208 58H116.735L112.789 65.8926C112.052 67.3665 109.948 67.3665 109.211 65.8926L105.265 58H14C7.37258 58 2 52.6274 2 46V14C2 7.37258 7.37258 2 14 2H208Z" fill="white"/>
<path d="M220 14H222H220ZM220 46H222H220ZM208 58V60V58ZM116.735 58V56H115.499L114.946 57.1056L116.735 58ZM112.789 65.8926L114.578 66.7871L114.578 66.787L112.789 65.8926ZM109.211 65.8926L107.422 66.787L107.422 66.7871L109.211 65.8926ZM105.265 58L107.054 57.1056L106.501 56H105.265V58ZM2 46H0H2ZM2 14H0H2ZM14 2V0V2ZM208 2V4C213.523 4 218 8.47715 218 14H220H222C222 6.26801 215.732 0 208 0V2ZM220 14H218V46H220H222V14H220ZM220 46H218C218 51.5228 213.523 56 208 56V58V60C215.732 60 222 53.732 222 46H220ZM208 58V56H116.735V58V60H208V58ZM116.735 58L114.946 57.1056L111 64.9981L112.789 65.8926L114.578 66.787L118.524 58.8944L116.735 58ZM112.789 65.8926L111 64.998H111L109.211 65.8926L107.422 66.7871C108.896 69.735 113.104 69.735 114.578 66.7871L112.789 65.8926ZM109.211 65.8926L111 64.9981L107.054 57.1056L105.265 58L103.476 58.8944L107.422 66.787L109.211 65.8926ZM105.265 58V56H14V58V60H105.265V58ZM14 58V56C8.47715 56 4 51.5228 4 46H2H0C1.19209e-07 53.732 6.26801 60 14 60V58ZM2 46H4V14H2H0V46H2ZM2 14H4C4 8.47715 8.47715 4 14 4V2V0C6.26801 2.38419e-07 5.96046e-07 6.26801 0 14H2ZM14 2V4H208V2V0H14V2Z" fill="#FF601C" mask="url(#path-1-outside-1_2964_5619)"/>
</svg>
