<svg width="24" height="24" viewBox="0 0 24 24" fill="none" xmlns="http://www.w3.org/2000/svg">
<path d="M12 4C12.1839 4 12.363 4.06391 12.5068 4.18164L19.3838 9.80176C19.5755 9.95845 19.7314 10.159 19.8379 10.3857C19.9443 10.6124 19.9999 10.8607 20 11.1123V18.9922C19.9999 19.5247 19.7942 20.0356 19.4277 20.4121C19.0613 20.7886 18.5641 20.9999 18.0459 21H13.6289V17.0244C13.6289 16.8026 13.5432 16.5895 13.3906 16.4326C13.2379 16.2757 13.0304 16.1875 12.8145 16.1875H11.1865C10.9706 16.1875 10.7631 16.2757 10.6104 16.4326C10.4577 16.5895 10.3721 16.8026 10.3721 17.0244V21H5.9541C5.43589 20.9999 4.93871 20.7886 4.57227 20.4121C4.20583 20.0356 4.00008 19.5247 4 18.9922V11.1113C4.00008 10.8597 4.05572 10.6114 4.16211 10.3848C4.26855 10.1581 4.42355 9.95842 4.61523 9.80176L11.4941 4.18164C11.6379 4.06405 11.8163 4.00009 12 4ZM5.56348 10.9629L5.56445 10.9639C5.54842 10.977 5.53181 10.9963 5.51953 11.0225C5.50725 11.0487 5.5 11.0798 5.5 11.1123V18.9922C5.50008 19.1397 5.55774 19.2729 5.64746 19.3652C5.73594 19.4561 5.84703 19.4999 5.9541 19.5H8.87207V17.0244C8.87207 16.4176 9.10583 15.8269 9.53516 15.3857L9.7041 15.2295C10.1147 14.8838 10.6376 14.6875 11.1865 14.6875H12.8145C13.3634 14.6875 13.8862 14.8838 14.2969 15.2295L14.4658 15.3857L14.6172 15.5586C14.9495 15.9753 15.1289 16.4935 15.1289 17.0244V19.5H18.0459C18.153 19.4999 18.2641 19.4561 18.3525 19.3652C18.4423 19.2729 18.4999 19.1397 18.5 18.9922V11.1123C18.4999 11.08 18.4927 11.0495 18.4805 11.0234C18.4682 10.9973 18.4516 10.9779 18.4355 10.9648L18.4365 10.9639L12 5.70508L5.56348 10.9629Z" fill="#999999"/>
</svg>
